<?xml version="1.0" encoding="UTF-8" standalone="no"?>
<!-- Created with Inkscape (http://www.inkscape.org/) -->

<svg
   width="808"
   height="256"
   viewBox="0 0 213.78334 67.733332"
   version="1.1"
   id="svg1597"
   inkscape:export-filename="qinetic_logo.png"
   inkscape:export-xdpi="96.000008"
   inkscape:export-ydpi="96.000008"
   inkscape:version="1.2.1 (9c6d41e410, 2022-07-14, custom)"
   sodipodi:docname="qinetic_logo.svg"
   xmlns:inkscape="http://www.inkscape.org/namespaces/inkscape"
   xmlns:sodipodi="http://sodipodi.sourceforge.net/DTD/sodipodi-0.dtd"
   xmlns:xlink="http://www.w3.org/1999/xlink"
   xmlns="http://www.w3.org/2000/svg"
   xmlns:svg="http://www.w3.org/2000/svg">
  <sodipodi:namedview
     id="namedview1599"
     pagecolor="#282828"
     bordercolor="#eeeeee"
     borderopacity="1"
     inkscape:showpageshadow="0"
     inkscape:pageopacity="0"
     inkscape:pagecheckerboard="0"
     inkscape:deskcolor="#282828"
     inkscape:document-units="px"
     showgrid="false"
     showguides="true"
     inkscape:zoom="1.1513166"
     inkscape:cx="320.50263"
     inkscape:cy="176.31988"
     inkscape:window-width="1920"
     inkscape:window-height="1032"
     inkscape:window-x="0"
     inkscape:window-y="0"
     inkscape:window-maximized="1"
     inkscape:current-layer="layer1" />
  <defs
     id="defs1594">
    <linearGradient
       inkscape:collect="always"
       id="linearGradient1522">
      <stop
         style="stop-color:#ffffff;stop-opacity:1;"
         offset="0"
         id="stop1518" />
      <stop
         style="stop-color:#ffffff;stop-opacity:0.25;"
         offset="1"
         id="stop1520" />
    </linearGradient>
    <linearGradient
       inkscape:collect="always"
       id="linearGradient1254">
      <stop
         style="stop-color:#ffffff;stop-opacity:1;"
         offset="0"
         id="stop1250" />
      <stop
         style="stop-color:#ffffff;stop-opacity:0.25;"
         offset="1"
         id="stop1252" />
    </linearGradient>
    <radialGradient
       inkscape:collect="always"
       xlink:href="#linearGradient1254"
       id="radialGradient1256"
       cx="83.979408"
       cy="37.0844"
       fx="83.979408"
       fy="37.0844"
       r="33.866669"
       gradientUnits="userSpaceOnUse"
       gradientTransform="matrix(0.87571851,-0.8673435,0.87055699,0.8758616,-67.411929,69.980662)" />
    <linearGradient
       inkscape:collect="always"
       xlink:href="#linearGradient1522"
       id="linearGradient1524"
       x1="16.933334"
       y1="8.6416492"
       x2="53.351307"
       y2="8.6416492"
       gradientUnits="userSpaceOnUse"
       gradientTransform="scale(4.0035364)" />
  </defs>
  <g
     inkscape:label="Layer 1"
     inkscape:groupmode="layer"
     id="layer1">
    <path
       id="path1072"
       style="display:inline;fill:url(#radialGradient1256);fill-opacity:1;stroke-width:1.06102;stroke-linejoin:round"
       d="M 4.2903329,15.342108 A 5.49866,5.4890956 0 0 0 0.18733163,19.2761 5.49866,5.4890956 0 0 0 4.075077,25.998614 a 5.49866,5.4890956 0 0 0 6.020767,-2.29582 l 22.674392,6.06489 a 5.49866,5.4890956 0 0 0 0.17602,1.121788 5.49866,5.4890956 0 0 0 5.060784,4.061292 l 6.094109,22.703972 a 5.49866,5.4890956 0 0 0 -2.300454,6.01018 5.49866,5.4890956 0 0 0 6.734461,3.88138 5.49866,5.4890956 0 0 0 3.888135,-6.722744 5.49866,5.4890956 0 0 0 -5.002576,-4.05674 L 41.316703,34.025944 a 5.49866,5.4890956 0 0 0 2.252153,-5.977836 5.49866,5.4890956 0 0 0 -0.377705,-1.003326 L 59.878899,10.386669 a 5.498674,5.4890956 0 0 0 6.364049,-1.0169074 5.498674,5.4890956 0 0 0 -2.3e-4,-7.7623605 5.498674,5.4890956 0 0 0 -7.775891,2.276e-4 5.498674,5.4890956 0 0 0 -1.018191,6.3525649 L 40.785722,24.59432 a 5.49866,5.4890956 0 0 0 -3.951319,-0.42759 5.49866,5.4890956 0 0 0 -3.168805,2.288402 L 10.985153,20.38839 A 5.49866,5.4890956 0 0 0 6.9215601,15.395117 5.49866,5.4890956 0 0 0 4.2903329,15.342107 Z" />
    <text
       xml:space="preserve"
       style="font-style:normal;font-variant:normal;font-weight:bold;font-stretch:normal;font-size:45.1957px;font-family:Cantarell;-inkscape-font-specification:'Cantarell Bold';fill:url(#linearGradient1524);fill-opacity:1;stroke-width:2.11853;stroke-linejoin:round"
       x="65.759422"
       y="50.076626"
       id="text369"
       transform="scale(1.0008841,0.99911665)"><tspan
         sodipodi:role="line"
         id="tspan367"
         style="font-style:normal;font-variant:normal;font-weight:bold;font-stretch:normal;font-family:Cantarell;-inkscape-font-specification:'Cantarell Bold';fill:url(#linearGradient1524);fill-opacity:1;stroke-width:2.11853"
         x="65.759422"
         y="50.076626">Qinetic</tspan></text>
  </g>
</svg>
