<?xml version="1.0" encoding="UTF-8" standalone="no"?>
<!-- Created with Inkscape (http://www.inkscape.org/) -->

<svg
   width="128"
   height="128"
   viewBox="0 0 33.866668 33.866666"
   version="1.1"
   id="svg1597"
   inkscape:export-filename="qinetic_icon.png"
   inkscape:export-xdpi="96"
   inkscape:export-ydpi="96"
   inkscape:version="1.2.1 (9c6d41e410, 2022-07-14, custom)"
   sodipodi:docname="qinetic_icon.svg"
   xmlns:inkscape="http://www.inkscape.org/namespaces/inkscape"
   xmlns:sodipodi="http://sodipodi.sourceforge.net/DTD/sodipodi-0.dtd"
   xmlns:xlink="http://www.w3.org/1999/xlink"
   xmlns="http://www.w3.org/2000/svg"
   xmlns:svg="http://www.w3.org/2000/svg">
  <sodipodi:namedview
     id="namedview1599"
     pagecolor="#282828"
     bordercolor="#eeeeee"
     borderopacity="1"
     inkscape:showpageshadow="0"
     inkscape:pageopacity="0"
     inkscape:pagecheckerboard="0"
     inkscape:deskcolor="#282828"
     inkscape:document-units="px"
     showgrid="false"
     showguides="false"
     inkscape:zoom="1.4561629"
     inkscape:cx="-34.336818"
     inkscape:cy="62.493008"
     inkscape:window-width="1920"
     inkscape:window-height="1032"
     inkscape:window-x="0"
     inkscape:window-y="0"
     inkscape:window-maximized="1"
     inkscape:current-layer="layer1" />
  <defs
     id="defs1594">
    <linearGradient
       inkscape:collect="always"
       id="linearGradient1254">
      <stop
         style="stop-color:#ffffff;stop-opacity:1;"
         offset="0"
         id="stop1250" />
      <stop
         style="stop-color:#ffffff;stop-opacity:0.25;"
         offset="1"
         id="stop1252" />
    </linearGradient>
    <radialGradient
       inkscape:collect="always"
       xlink:href="#linearGradient1254"
       id="radialGradient1256"
       cx="83.979408"
       cy="37.0844"
       fx="83.979408"
       fy="37.0844"
       r="33.866669"
       gradientUnits="userSpaceOnUse"
       gradientTransform="matrix(0.43708602,-0.43367175,0.43450982,0.4379308,-33.646441,34.990331)" />
  </defs>
  <g
     inkscape:label="Layer 1"
     inkscape:groupmode="layer"
     id="layer1">
    <path
       id="path1072"
       style="display:inline;fill:url(#radialGradient1256);fill-opacity:1;stroke-width:0.53004;stroke-linejoin:round"
       d="M 2.1413781,7.6710535 A 2.7444748,2.7445478 0 0 0 0.09350039,9.63805 2.7444748,2.7445478 0 0 0 2.0339403,12.999307 2.7444748,2.7445478 0 0 0 5.0390075,11.851397 l 11.3171755,3.032445 a 2.7444748,2.7445478 0 0 0 0.08785,0.560894 2.7444748,2.7445478 0 0 0 2.525924,2.030646 l 3.041673,11.351986 a 2.7444748,2.7445478 0 0 0 -1.148195,3.00509 2.7444748,2.7445478 0 0 0 3.361284,1.94069 2.7444748,2.7445478 0 0 0 1.940634,-3.361372 2.7444748,2.7445478 0 0 0 -2.496871,-2.02837 L 20.62187,17.012972 a 2.7444748,2.7445478 0 0 0 1.124088,-2.988918 2.7444748,2.7445478 0 0 0 -0.188519,-0.501663 l 8.329139,-8.3290565 a 2.7444818,2.7445478 0 0 0 3.176405,-0.5084538 2.7444818,2.7445478 0 0 0 -1.15e-4,-3.88118027 2.7444818,2.7445478 0 0 0 -3.881079,1.138e-4 2.7444818,2.7445478 0 0 0 -0.508197,3.17628247 L 20.356848,12.29716 a 2.7444748,2.7445478 0 0 0 -1.97217,-0.213795 2.7444748,2.7445478 0 0 0 -1.581605,1.144201 L 5.482877,10.194195 A 2.7444748,2.7445478 0 0 0 3.4546684,7.6975585 2.7444748,2.7445478 0 0 0 2.1413781,7.6710535 Z" />
  </g>
</svg>
