<?xml version="1.0" encoding="UTF-8" standalone="no"?>
<!-- Created with Inkscape (http://www.inkscape.org/) -->

<svg
   width="404"
   height="128"
   viewBox="0 0 106.89167 33.866666"
   version="1.1"
   id="svg1597"
   inkscape:export-filename="qinetic_logo.png"
   inkscape:export-xdpi="96.000008"
   inkscape:export-ydpi="96.000008"
   inkscape:version="1.2.1 (9c6d41e410, 2022-07-14, custom)"
   sodipodi:docname="qinetic_logo.svg"
   xmlns:inkscape="http://www.inkscape.org/namespaces/inkscape"
   xmlns:sodipodi="http://sodipodi.sourceforge.net/DTD/sodipodi-0.dtd"
   xmlns:xlink="http://www.w3.org/1999/xlink"
   xmlns="http://www.w3.org/2000/svg"
   xmlns:svg="http://www.w3.org/2000/svg">
  <sodipodi:namedview
     id="namedview1599"
     pagecolor="#282828"
     bordercolor="#eeeeee"
     borderopacity="1"
     inkscape:showpageshadow="0"
     inkscape:pageopacity="0"
     inkscape:pagecheckerboard="0"
     inkscape:deskcolor="#282828"
     inkscape:document-units="px"
     showgrid="false"
     showguides="true"
     inkscape:zoom="1.1513166"
     inkscape:cx="320.50263"
     inkscape:cy="176.31988"
     inkscape:window-width="1920"
     inkscape:window-height="1032"
     inkscape:window-x="0"
     inkscape:window-y="0"
     inkscape:window-maximized="1"
     inkscape:current-layer="layer1" />
  <defs
     id="defs1594">
    <linearGradient
       inkscape:collect="always"
       id="linearGradient1522">
      <stop
         style="stop-color:#ffffff;stop-opacity:1;"
         offset="0"
         id="stop1518" />
      <stop
         style="stop-color:#ffffff;stop-opacity:0.25;"
         offset="1"
         id="stop1520" />
    </linearGradient>
    <linearGradient
       inkscape:collect="always"
       id="linearGradient1254">
      <stop
         style="stop-color:#ffffff;stop-opacity:1;"
         offset="0"
         id="stop1250" />
      <stop
         style="stop-color:#ffffff;stop-opacity:0.25;"
         offset="1"
         id="stop1252" />
    </linearGradient>
    <radialGradient
       inkscape:collect="always"
       xlink:href="#linearGradient1254"
       id="radialGradient1256"
       cx="83.979408"
       cy="37.0844"
       fx="83.979408"
       fy="37.0844"
       r="33.866669"
       gradientUnits="userSpaceOnUse"
       gradientTransform="matrix(0.43785826,-0.43367175,0.43527751,0.4379308,-33.705888,34.990331)" />
    <linearGradient
       inkscape:collect="always"
       xlink:href="#linearGradient1522"
       id="linearGradient1524"
       x1="16.933334"
       y1="8.6416492"
       x2="53.351307"
       y2="8.6416492"
       gradientUnits="userSpaceOnUse"
       gradientTransform="scale(2.0017659)" />
  </defs>
  <g
     inkscape:label="Layer 1"
     inkscape:groupmode="layer"
     id="layer1">
    <path
       id="path1072"
       style="display:inline;fill:url(#radialGradient1256);fill-opacity:1;stroke-width:0.530509;stroke-linejoin:round"
       d="m 2.1451616,7.6710543 a 2.7493237,2.7445478 0 0 0 -2.05149603,1.966996 2.7493237,2.7445478 0 0 0 1.94386823,3.3612567 2.7493237,2.7445478 0 0 0 3.0103768,-1.14791 l 11.3371704,3.032445 a 2.7493237,2.7445478 0 0 0 0.08801,0.560894 2.7493237,2.7445478 0 0 0 2.530386,2.030646 l 3.047047,11.351986 a 2.7493237,2.7445478 0 0 0 -1.150224,3.00509 2.7493237,2.7445478 0 0 0 3.367223,1.94069 2.7493237,2.7445478 0 0 0 1.944063,-3.361372 2.7493237,2.7445478 0 0 0 -2.501282,-2.02837 l -3.052,-11.370434 a 2.7493237,2.7445478 0 0 0 1.126075,-2.988918 2.7493237,2.7445478 0 0 0 -0.188853,-0.501663 l 8.343856,-8.3290563 a 2.7493307,2.7445478 0 0 0 3.182016,-0.5084537 2.7493307,2.7445478 0 0 0 -10e-5,-3.88118024 2.7493307,2.7445478 0 0 0 -3.887936,1.138e-4 2.7493307,2.7445478 0 0 0 -0.509094,3.17628244 l -8.331453,8.317063 a 2.7493237,2.7445478 0 0 0 -1.975656,-0.213795 2.7493237,2.7445478 0 0 0 -1.584398,1.144201 L 5.4925641,10.194195 A 2.7493237,2.7445478 0 0 0 3.4607721,7.6975588 2.7493237,2.7445478 0 0 0 2.1451616,7.6710543 Z" />
    <text
       xml:space="preserve"
       style="font-style:normal;font-variant:normal;font-weight:bold;font-stretch:normal;font-size:22.5979px;font-family:Cantarell;-inkscape-font-specification:'Cantarell Bold';fill:url(#linearGradient1524);fill-opacity:1;stroke-width:1.05927;stroke-linejoin:round"
       x="32.879673"
       y="25.038284"
       id="text369"
       transform="scale(1.000883,0.99911778)"><tspan
         sodipodi:role="line"
         id="tspan367"
         style="font-style:normal;font-variant:normal;font-weight:bold;font-stretch:normal;font-family:Cantarell;-inkscape-font-specification:'Cantarell Bold';fill:url(#linearGradient1524);fill-opacity:1;stroke-width:1.05927"
         x="32.879673"
         y="25.038284">Qinetic</tspan></text>
  </g>
</svg>
